<svg xmlns="http://www.w3.org/2000/svg" version="1.1" xmlns:xlink="http://www.w3.org/1999/xlink" xmlns:svgjs="http://svgjs.dev/svgjs" width="1000" height="1000" viewBox="0 0 1000 1000"><rect width="1000" height="1000" fill="#f1faee"></rect><g transform="matrix(0.7,0,0,0.7,149.57575757575756,433.6683701683613)"><svg viewBox="0 0 396 75" data-background-color="#f1faee" preserveAspectRatio="xMidYMid meet" height="189" width="1000" xmlns="http://www.w3.org/2000/svg" xmlns:xlink="http://www.w3.org/1999/xlink"><g id="tight-bounds" transform="matrix(1,0,0,1,0.2400000000000091,0.10296475716478426)"><svg viewBox="0 0 395.52 74.79407048567043" height="74.79407048567043" width="395.52"><g><svg viewBox="0 0 595.771250772118 112.66220905032827" height="74.79407048567043" width="395.52"><g transform="matrix(1,0,0,1,200.251250772118,20.47881379650476)"><svg viewBox="0 0 395.52 71.70458145731875" height="71.70458145731875" width="395.52"><g id="textblocktransform"><svg viewBox="0 0 395.52 71.70458145731875" height="71.70458145731875" width="395.52" id="textblock"><g><svg viewBox="0 0 395.52 71.70458145731875" height="71.70458145731875" width="395.52"><g transform="matrix(1,0,0,1,0,0)"><svg width="395.52" viewBox="1.6100000143051147 -37.5 265.6800231933594 48.16999816894531" height="71.70458145731875" data-palette-color="#1d3557"><path d="M1.61-13.4L1.61-13.4Q1.61-19.58 4.38-23.24 7.15-26.9 11.96-26.9L11.96-26.9Q15.82-26.9 18.33-24.02L18.33-24.02 18.33-37.5 25.42-37.5 25.42 0 19.04 0 18.7-2.81Q16.06 0.49 11.91 0.49L11.91 0.49Q7.25 0.49 4.43-3.19 1.61-6.86 1.61-13.4ZM8.67-12.89L8.67-12.89Q8.67-9.18 9.96-7.2 11.25-5.22 13.72-5.22L13.72-5.22Q16.99-5.22 18.33-7.98L18.33-7.98 18.33-18.41Q17.02-21.17 13.77-21.17L13.77-21.17Q8.67-21.17 8.67-12.89ZM43.04 0.49L43.04 0.49Q37.23 0.49 33.58-3.08 29.93-6.64 29.93-12.57L29.93-12.57 29.93-13.26Q29.93-17.24 31.47-20.37 33.01-23.51 35.83-25.21 38.64-26.9 42.26-26.9L42.26-26.9Q47.68-26.9 50.79-23.49 53.9-20.07 53.9-13.79L53.9-13.79 53.9-10.91 37.08-10.91Q37.42-8.33 39.15-6.76 40.87-5.2 43.5-5.2L43.5-5.2Q47.58-5.2 49.88-8.15L49.88-8.15 53.34-4.27Q51.76-2.03 49.05-0.77 46.34 0.49 43.04 0.49ZM42.23-21.19L42.23-21.19Q40.13-21.19 38.83-19.78 37.52-18.36 37.16-15.72L37.16-15.72 46.97-15.72 46.97-16.28Q46.92-18.63 45.7-19.91 44.48-21.19 42.23-21.19ZM62.57-26.42L67.48-8.62 72.38-26.42 79.76-26.42 70.84 0 64.11 0 55.2-26.42 62.57-26.42ZM81.51-13.11L81.51-13.4Q81.51-19.48 84.4-23.19 87.3-26.9 92.2-26.9L92.2-26.9Q96.55-26.9 98.97-23.93L98.97-23.93 99.26-26.42 105.66-26.42 105.66-0.88Q105.66 2.59 104.08 5.15 102.51 7.71 99.65 9.06 96.79 10.4 92.96 10.4L92.96 10.4Q90.06 10.4 87.3 9.24 84.54 8.08 83.12 6.25L83.12 6.25 86.25 1.95Q88.88 4.91 92.64 4.91L92.64 4.91Q95.45 4.91 97.01 3.41 98.58 1.9 98.58-0.85L98.58-0.85 98.58-2.27Q96.14 0.49 92.16 0.49L92.16 0.49Q87.39 0.49 84.45-3.23 81.51-6.96 81.51-13.11L81.51-13.11ZM88.57-12.89L88.57-12.89Q88.57-9.3 90.01-7.26 91.45-5.22 93.96-5.22L93.96-5.22Q97.18-5.22 98.58-7.64L98.58-7.64 98.58-18.75Q97.16-21.17 94.01-21.17L94.01-21.17Q91.47-21.17 90.02-19.09 88.57-17.02 88.57-12.89ZM123.23 0.49L123.23 0.49Q117.42 0.49 113.77-3.08 110.12-6.64 110.12-12.57L110.12-12.57 110.12-13.26Q110.12-17.24 111.66-20.37 113.2-23.51 116.02-25.21 118.84-26.9 122.45-26.9L122.45-26.9Q127.87-26.9 130.98-23.49 134.1-20.07 134.1-13.79L134.1-13.79 134.1-10.91 117.28-10.91Q117.62-8.33 119.34-6.76 121.06-5.2 123.7-5.2L123.7-5.2Q127.77-5.2 130.07-8.15L130.07-8.15 133.53-4.27Q131.95-2.03 129.24-0.77 126.53 0.49 123.23 0.49ZM122.43-21.19L122.43-21.19Q120.33-21.19 119.02-19.78 117.71-18.36 117.35-15.72L117.35-15.72 127.16-15.72 127.16-16.28Q127.11-18.63 125.89-19.91 124.67-21.19 122.43-21.19ZM139.49-32.91L146.55-32.91 146.55-26.42 151.06-26.42 151.06-21.24 146.55-21.24 146.55-8.06Q146.55-6.59 147.11-5.96 147.67-5.32 149.26-5.32L149.26-5.32Q150.43-5.32 151.33-5.49L151.33-5.49 151.33-0.15Q149.26 0.49 147.06 0.49L147.06 0.49Q139.64 0.49 139.49-7.01L139.49-7.01 139.49-21.24 135.63-21.24 135.63-26.42 139.49-26.42 139.49-32.91ZM177.43 0L170.3 0Q169.81-0.95 169.59-2.37L169.59-2.37Q167.03 0.49 162.92 0.49L162.92 0.49Q159.04 0.49 156.49-1.76 153.94-4 153.94-7.42L153.94-7.42Q153.94-11.62 157.05-13.87 160.17-16.11 166.05-16.14L166.05-16.14 169.3-16.14 169.3-17.65Q169.3-19.48 168.36-20.58 167.42-21.68 165.39-21.68L165.39-21.68Q163.61-21.68 162.59-20.83 161.58-19.97 161.58-18.48L161.58-18.48 154.53-18.48Q154.53-20.78 155.94-22.73 157.36-24.68 159.95-25.79 162.53-26.9 165.76-26.9L165.76-26.9Q170.64-26.9 173.51-24.45 176.38-22 176.38-17.55L176.38-17.55 176.38-6.1Q176.4-2.34 177.43-0.42L177.43-0.42 177.43 0ZM164.46-4.91L164.46-4.91Q166.03-4.91 167.34-5.6 168.66-6.3 169.3-7.47L169.3-7.47 169.3-12.01 166.66-12.01Q161.36-12.01 161.02-8.35L161.02-8.35 161-7.93Q161-6.62 161.92-5.76 162.85-4.91 164.46-4.91ZM199.96-26.42L204.77-9.59 208.23-26.42 215.05-26.42 208.31 0 202.4 0 197.39-16.63 192.39 0 186.51 0 179.77-26.42 186.58-26.42 190.02-9.62 194.86-26.42 199.96-26.42ZM240.97 0L233.84 0Q233.35-0.95 233.13-2.37L233.13-2.37Q230.57 0.49 226.47 0.49L226.47 0.49Q222.59 0.49 220.04-1.76 217.48-4 217.48-7.42L217.48-7.42Q217.48-11.62 220.6-13.87 223.71-16.11 229.59-16.14L229.59-16.14 232.84-16.14 232.84-17.65Q232.84-19.48 231.9-20.58 230.96-21.68 228.94-21.68L228.94-21.68Q227.15-21.68 226.14-20.83 225.13-19.97 225.13-18.48L225.13-18.48 218.07-18.48Q218.07-20.78 219.49-22.73 220.9-24.68 223.49-25.79 226.08-26.9 229.3-26.9L229.3-26.9Q234.18-26.9 237.05-24.45 239.92-22 239.92-17.55L239.92-17.55 239.92-6.1Q239.95-2.34 240.97-0.42L240.97-0.42 240.97 0ZM228.01-4.91L228.01-4.91Q229.57-4.91 230.89-5.6 232.21-6.3 232.84-7.47L232.84-7.47 232.84-12.01 230.2-12.01Q224.91-12.01 224.56-8.35L224.56-8.35 224.54-7.93Q224.54-6.62 225.47-5.76 226.4-4.91 228.01-4.91ZM249.93-26.42L254.84-9.99 259.72-26.42 267.29-26.42 256.67 4.1 256.08 5.49Q253.71 10.67 248.27 10.67L248.27 10.67Q246.73 10.67 245.14 10.21L245.14 10.21 245.14 4.86 246.22 4.88Q248.22 4.88 249.21 4.27 250.2 3.66 250.76 2.25L250.76 2.25 251.59 0.07 242.34-26.42 249.93-26.42Z" opacity="1" transform="matrix(1,0,0,1,0,0)" fill="#1d3557" class="undefined-text-0" data-fill-palette-color="primary" id="text-0"></path></svg></g></svg></g></svg></g></svg></g><g><svg viewBox="0 0 183.32352 112.66220905032827" height="112.66220905032827" width="183.32352"><g><svg xmlns="http://www.w3.org/2000/svg" data-name="Layer 1" viewBox="2.430551767349243 20.791906356811523 95.1390609741211 58.46809387207031" x="0" y="0" height="112.66220905032827" width="183.32352" class="icon-icon-0" data-fill-palette-color="accent" id="icon-0"><path d="M62.78 23l32 55.42 1.3-2.26h-64l1.3 2.26L65.37 23a1.5 1.5 0 0 0-2.59-1.51L30.79 77a1.51 1.51 0 0 0 1.3 2.26h64A1.51 1.51 0 0 0 97.37 77l-32-55.42A1.5 1.5 0 0 0 62.78 23Z" fill="#a8dadc" data-fill-palette-color="accent"></path><path d="M34.63 23l32 55.42 1.3-2.26h-64l1.3 2.26L37.22 23a1.5 1.5 0 0 0-2.59-1.51L2.63 77a1.51 1.51 0 0 0 1.3 2.26h64A1.51 1.51 0 0 0 69.21 77l-32-55.42A1.5 1.5 0 0 0 34.63 23Z" fill="#a8dadc" data-fill-palette-color="accent"></path></svg></g></svg></g></svg></g><defs></defs></svg><rect width="395.52" height="74.79407048567043" fill="none" stroke="none" visibility="hidden"></rect></g></svg></g></svg>